<svg width="107" height="40" viewBox="0 0 107 40" fill="none" xmlns="http://www.w3.org/2000/svg">
<path d="M10.27 18.98L7.39 18.95C6.57 18.95 5.94 18.96 5.5 18.98C5.18 21.78 5.02 24.05 5.02 25.79C5.02 27.53 5.08 28.75 5.2 29.45C4.56 29.49 4.14 29.51 3.94 29.51C2.8 29.51 1.98 29.31 1.48 28.91C0.98 28.51 0.73 27.81 0.73 26.81C0.73 25.79 1.01 23.36 1.57 19.52C0.93 19.72 0.46 19.89 0.16 20.03C0.12 19.59 0.1 19.26 0.1 19.04C0.1 17.66 0.73 16.8 1.99 16.46C2.37 13.72 2.6 11.35 2.68 9.35C1.66 9.35 1.01 9.21 0.73 8.93C0.47 8.65 0.34 8.03 0.34 7.07C0.42 6.17 0.5 5.58 0.58 5.3C2.84 5.6 5.32 5.75 8.02 5.75C10.72 5.75 13.33 5.51 15.85 5.03C15.57 7.13 14.29 8.39 12.01 8.81C10.77 9.05 9 9.21 6.7 9.29C6.68 9.55 6.39 11.88 5.83 16.28C6.99 16.32 7.78 16.34 8.2 16.34C10.1 16.34 11.45 16.01 12.25 15.35C12.29 15.75 12.31 16.05 12.31 16.25C12.31 18.07 11.63 18.98 10.27 18.98ZM24.4159 13.97C23.1159 13.97 21.9559 14.85 20.9359 16.61C19.9159 18.35 19.4059 20.09 19.4059 21.83C19.4059 25.47 20.3459 27.29 22.2259 27.29C23.5659 27.29 24.6559 26.42 25.4959 24.68C26.3359 22.92 26.7559 20.95 26.7559 18.77C26.7559 15.57 25.9759 13.97 24.4159 13.97ZM21.8659 11.27C22.0859 11.27 22.2859 11.34 22.4659 11.48C22.6659 11.6 22.7659 11.73 22.7659 11.87C20.7459 13.27 19.5359 15.22 19.1359 17.72C19.5559 16.6 20.0659 15.63 20.6659 14.81C21.2859 13.99 21.9259 13.37 22.5859 12.95C23.8459 12.17 25.0759 11.78 26.2759 11.78C27.4759 11.78 28.4959 12.37 29.3359 13.55C30.1759 14.73 30.5959 16.31 30.5959 18.29C30.5959 20.51 30.1459 22.55 29.2459 24.41C28.2459 26.51 26.8259 27.96 24.9859 28.76C23.9459 29.22 22.8059 29.45 21.5659 29.45C19.8259 29.45 18.3059 28.78 17.0059 27.44C15.7259 26.08 15.0859 24.14 15.0859 21.62C15.0859 19.08 15.7059 16.85 16.9459 14.93C18.1859 12.99 19.8259 11.77 21.8659 11.27ZM42.9316 13.97C41.6316 13.97 40.4716 14.85 39.4516 16.61C38.4316 18.35 37.9216 20.09 37.9216 21.83C37.9216 25.47 38.8616 27.29 40.7416 27.29C42.0816 27.29 43.1716 26.42 44.0116 24.68C44.8516 22.92 45.2716 20.95 45.2716 18.77C45.2716 15.57 44.4916 13.97 42.9316 13.97ZM40.3816 11.27C40.6016 11.27 40.8016 11.34 40.9816 11.48C41.1816 11.6 41.2816 11.73 41.2816 11.87C39.2616 13.27 38.0516 15.22 37.6516 17.72C38.0716 16.6 38.5816 15.63 39.1816 14.81C39.8016 13.99 40.4416 13.37 41.1016 12.95C42.3616 12.17 43.5916 11.78 44.7916 11.78C45.9916 11.78 47.0116 12.37 47.8516 13.55C48.6916 14.73 49.1116 16.31 49.1116 18.29C49.1116 20.51 48.6616 22.55 47.7616 24.41C46.7616 26.51 45.3416 27.96 43.5016 28.76C42.4616 29.22 41.3216 29.45 40.0816 29.45C38.3416 29.45 36.8216 28.78 35.5216 27.44C34.2416 26.08 33.6016 24.14 33.6016 21.62C33.6016 19.08 34.2216 16.85 35.4616 14.93C36.7016 12.99 38.3416 11.77 40.3816 11.27ZM56.1372 22.94C56.1372 25.32 56.8572 26.51 58.2972 26.51C59.0572 26.51 59.7972 26.1 60.5172 25.28C61.2372 24.46 61.8172 23.36 62.2572 21.98C62.7172 20.6 63.1072 19.13 63.4272 17.57C63.7672 15.99 64.0172 14.32 64.1772 12.56C64.4572 9.16 64.5972 6.51 64.5972 4.61C64.5972 2.69 64.5172 1.25 64.3572 0.289999C65.7972 0.609999 66.8072 1.29 67.3872 2.33C67.9672 3.37 68.2572 4.68 68.2572 6.26C68.2572 7.84 67.9172 10.78 67.2372 15.08C66.5772 19.38 66.2472 22.52 66.2472 24.5C66.2472 26.48 66.3372 28.16 66.5172 29.54C65.0972 29.16 64.1172 28.48 63.5772 27.5C63.0572 26.5 62.7972 25.25 62.7972 23.75C62.1772 25.47 61.2472 26.83 60.0072 27.83C58.7672 28.83 57.4872 29.33 56.1672 29.33C54.8472 29.33 53.7672 28.83 52.9272 27.83C52.1072 26.81 51.6972 25.32 51.6972 23.36C51.6972 20.26 52.5472 17.6 54.2472 15.38C55.9472 13.14 57.9572 12.02 60.2772 12.02C60.9372 12.02 61.9772 12.18 63.3972 12.5C62.1572 12.82 61.0472 13.38 60.0672 14.18C59.1072 14.96 58.3572 15.86 57.8172 16.88C56.6972 18.9 56.1372 20.92 56.1372 22.94ZM76.8135 14.09C76.8135 14.39 76.5635 15.97 76.0635 18.83C75.5835 21.67 75.3335 24.02 75.3135 25.88C75.3135 27.72 75.4335 28.91 75.6735 29.45C74.1135 29.05 73.0635 28.45 72.5235 27.65C71.9835 26.83 71.7135 25.64 71.7135 24.08C71.7135 23.24 71.8735 21.72 72.1935 19.52C72.5135 17.32 72.6735 15.61 72.6735 14.39C72.6735 13.17 72.6135 12.23 72.4935 11.57C72.9335 11.53 73.3435 11.51 73.7235 11.51C74.8835 11.51 75.6835 11.71 76.1235 12.11C76.5835 12.49 76.8135 13.15 76.8135 14.09ZM77.2635 8.87C76.7035 8.95 76.2135 8.99 75.7935 8.99C73.7335 8.99 72.7035 8.27 72.7035 6.83C72.7035 6.31 72.8535 5.6 73.1535 4.7C73.7135 4.62 74.2035 4.58 74.6235 4.58C76.6835 4.58 77.7135 5.3 77.7135 6.74C77.7135 7.26 77.5635 7.97 77.2635 8.87ZM91.0122 11.48C91.0522 11.88 91.0722 12.18 91.0722 12.38C91.0722 13.34 90.9022 14.01 90.5622 14.39C90.2222 14.75 89.6222 14.93 88.7622 14.93C87.9222 14.93 87.2722 14.92 86.8122 14.9C86.0322 20.58 85.6422 24.65 85.6422 27.11C85.6422 28.29 85.6622 29.14 85.7022 29.66C85.7622 30.2 85.9022 31.11 86.1222 32.39C84.6822 31.93 83.6222 31.18 82.9422 30.14C82.2622 29.12 81.9222 27.91 81.9222 26.51C81.9222 24.41 82.2222 21.31 82.8222 17.21C82.9622 16.17 83.0522 15.48 83.0922 15.14C82.0322 15.32 80.9522 15.66 79.8522 16.16C79.8122 15.72 79.7922 15.39 79.7922 15.17C79.7922 14.09 80.1222 13.36 80.7822 12.98C81.4422 12.6 82.3922 12.4 83.6322 12.38C84.0322 10.42 84.5622 8.73 85.2222 7.31C85.9022 5.89 86.6422 4.82 87.4422 4.1C88.9622 2.7 90.5522 2 92.2122 2C93.3322 2 94.2722 2.34 95.0322 3.02C95.8122 3.68 96.2022 4.5 96.2022 5.48C96.2022 6.44 95.8722 7.28 95.2122 8C94.5522 8.72 93.6822 9.08 92.6022 9.08C92.1822 9.08 91.7722 9.01 91.3722 8.87C91.6922 8.63 92.0022 8.21 92.3022 7.61C92.6222 7.01 92.7822 6.45 92.7822 5.93C92.7822 5.39 92.6622 4.97 92.4222 4.67C92.2022 4.37 91.9022 4.22 91.5222 4.22C90.7022 4.22 89.8622 4.91 89.0022 6.29C88.1622 7.65 87.5322 9.71 87.1122 12.47C88.8922 12.47 90.1922 12.14 91.0122 11.48ZM106.168 13.76C106.168 14.46 105.868 15.41 105.268 16.61C104.668 17.79 103.938 19.1 103.078 20.54C102.218 21.98 101.358 23.52 100.498 25.16C99.6383 26.78 98.9083 28.61 98.3083 30.65C97.7083 32.71 97.4083 34.72 97.4083 36.68C97.4083 37.58 97.4783 38.44 97.6183 39.26C95.9983 38.96 94.8983 38.51 94.3183 37.91C93.7383 37.33 93.4483 36.64 93.4483 35.84C93.4483 34.74 94.2483 32.57 95.8483 29.33C95.5483 28.09 95.1783 26.15 94.7383 23.51C94.2983 20.85 93.8483 18.54 93.3883 16.58C92.9483 14.62 92.4383 13.16 91.8583 12.2C92.9583 11.68 93.8383 11.42 94.4983 11.42C95.1583 11.42 95.6583 11.57 95.9983 11.87C96.3383 12.17 96.6183 12.77 96.8383 13.67C97.0783 14.55 97.2483 15.28 97.3483 15.86C97.6283 17.78 97.7683 18.85 97.7683 19.07C97.7683 19.29 97.8483 20.19 98.0083 21.77C98.1683 23.33 98.2883 24.36 98.3683 24.86C101.928 17.96 103.708 13.35 103.708 11.03C105.348 11.87 106.168 12.78 106.168 13.76Z" fill="black"/>
</svg>
